<mxfile host="app.diagrams.net" agent="Mozilla/5.0 (Windows NT 10.0; Win64; x64) AppleWebKit/537.36 (KHTML, like Gecko) Chrome/127.0.0.0 Safari/537.36" version="24.7.7">
  <diagram name="Page-1" id="ZFwUXWekMJxTEN9P8XSZ">
    <mxGraphModel dx="1877" dy="530" grid="1" gridSize="10" guides="1" tooltips="1" connect="1" arrows="1" fold="1" page="1" pageScale="1" pageWidth="827" pageHeight="1169" math="0" shadow="0">
      <root>
        <mxCell id="0" />
        <mxCell id="1" parent="0" />
        <mxCell id="8kmeovn6baDtIUTZzQ98-1" value="" style="endArrow=none;html=1;rounded=0;strokeColor=#000000;strokeWidth=2;" edge="1" parent="1">
          <mxGeometry width="50" height="50" relative="1" as="geometry">
            <mxPoint x="280" y="600" as="sourcePoint" />
            <mxPoint x="280" y="240" as="targetPoint" />
          </mxGeometry>
        </mxCell>
        <mxCell id="8kmeovn6baDtIUTZzQ98-2" value="" style="endArrow=none;html=1;rounded=0;strokeColor=#000000;strokeWidth=2;" edge="1" parent="1">
          <mxGeometry width="50" height="50" relative="1" as="geometry">
            <mxPoint x="540" y="600" as="sourcePoint" />
            <mxPoint x="540" y="240" as="targetPoint" />
          </mxGeometry>
        </mxCell>
        <mxCell id="8kmeovn6baDtIUTZzQ98-4" value="&lt;font style=&quot;font-size: 15px;&quot; color=&quot;#0061eb&quot;&gt;Serveur Faisant autorité Bind9 Master&lt;/font&gt;" style="rounded=0;whiteSpace=wrap;html=1;" vertex="1" parent="1">
          <mxGeometry x="200" y="190" width="180" height="50" as="geometry" />
        </mxCell>
        <mxCell id="8kmeovn6baDtIUTZzQ98-5" value="&lt;span style=&quot;font-size: 15px;&quot;&gt;&lt;font style=&quot;font-size: 15px;&quot; color=&quot;#0061eb&quot;&gt;Serveur Faisant autorité Bind9&amp;nbsp;&lt;/font&gt;&lt;/span&gt;&lt;span style=&quot;font-size: 15px; color: rgb(0, 97, 235); background-color: initial;&quot;&gt;Slave&lt;/span&gt;" style="rounded=0;whiteSpace=wrap;html=1;" vertex="1" parent="1">
          <mxGeometry x="450" y="190" width="180" height="50" as="geometry" />
        </mxCell>
        <mxCell id="8kmeovn6baDtIUTZzQ98-6" value="Ajout de la zone&amp;nbsp;&lt;span style=&quot;background-color: initial;&quot;&gt;eya.tn&amp;nbsp;&lt;/span&gt;" style="text;html=1;align=left;verticalAlign=middle;whiteSpace=wrap;rounded=0;" vertex="1" parent="1">
          <mxGeometry x="90" y="257" width="130" height="60" as="geometry" />
        </mxCell>
        <mxCell id="8kmeovn6baDtIUTZzQ98-7" value="" style="endArrow=classic;html=1;rounded=0;" edge="1" parent="1">
          <mxGeometry width="50" height="50" relative="1" as="geometry">
            <mxPoint x="540" y="360" as="sourcePoint" />
            <mxPoint x="280" y="360" as="targetPoint" />
          </mxGeometry>
        </mxCell>
        <mxCell id="8kmeovn6baDtIUTZzQ98-8" value="Requête AXFR" style="text;html=1;align=center;verticalAlign=middle;whiteSpace=wrap;rounded=0;" vertex="1" parent="1">
          <mxGeometry x="359" y="330" width="110" height="30" as="geometry" />
        </mxCell>
        <mxCell id="8kmeovn6baDtIUTZzQ98-9" value="" style="endArrow=none;html=1;rounded=0;endFill=0;startArrow=classic;startFill=1;" edge="1" parent="1">
          <mxGeometry width="50" height="50" relative="1" as="geometry">
            <mxPoint x="540" y="400" as="sourcePoint" />
            <mxPoint x="280" y="400" as="targetPoint" />
          </mxGeometry>
        </mxCell>
        <mxCell id="8kmeovn6baDtIUTZzQ98-10" value="Réponse AXFR" style="text;html=1;align=center;verticalAlign=middle;whiteSpace=wrap;rounded=0;" vertex="1" parent="1">
          <mxGeometry x="360" y="372" width="110" height="30" as="geometry" />
        </mxCell>
        <mxCell id="8kmeovn6baDtIUTZzQ98-11" value="Modification de la zone&amp;nbsp;&lt;span style=&quot;background-color: initial;&quot;&gt;eya.tn&amp;nbsp; : incrémentation de serial number&lt;/span&gt;&lt;div&gt;&lt;br&gt;&lt;/div&gt;" style="text;html=1;align=left;verticalAlign=middle;whiteSpace=wrap;rounded=0;" vertex="1" parent="1">
          <mxGeometry x="85" y="387" width="239" height="80" as="geometry" />
        </mxCell>
        <mxCell id="8kmeovn6baDtIUTZzQ98-13" value="" style="endArrow=none;html=1;rounded=0;strokeColor=#000000;strokeWidth=2;entryX=0.403;entryY=1;entryDx=0;entryDy=0;entryPerimeter=0;" edge="1" parent="1">
          <mxGeometry width="50" height="50" relative="1" as="geometry">
            <mxPoint x="29" y="600" as="sourcePoint" />
            <mxPoint x="29.480000000000018" y="240" as="targetPoint" />
          </mxGeometry>
        </mxCell>
        <mxCell id="8kmeovn6baDtIUTZzQ98-14" value="" style="endArrow=classic;html=1;rounded=0;" edge="1" parent="1">
          <mxGeometry width="50" height="50" relative="1" as="geometry">
            <mxPoint x="280" y="300" as="sourcePoint" />
            <mxPoint x="30" y="300" as="targetPoint" />
          </mxGeometry>
        </mxCell>
        <mxCell id="8kmeovn6baDtIUTZzQ98-21" value="&lt;font style=&quot;font-size: 15px;&quot; color=&quot;#0061eb&quot;&gt;Fichiers de zones master&lt;/font&gt;" style="rounded=0;whiteSpace=wrap;html=1;" vertex="1" parent="1">
          <mxGeometry x="-45" y="190" width="160" height="50" as="geometry" />
        </mxCell>
        <mxCell id="8kmeovn6baDtIUTZzQ98-22" value="" style="endArrow=none;html=1;rounded=0;strokeColor=#000000;strokeWidth=2;entryX=0.403;entryY=1;entryDx=0;entryDy=0;entryPerimeter=0;" edge="1" parent="1" target="8kmeovn6baDtIUTZzQ98-23">
          <mxGeometry width="50" height="50" relative="1" as="geometry">
            <mxPoint x="720" y="600" as="sourcePoint" />
            <mxPoint x="724.5" y="260" as="targetPoint" />
          </mxGeometry>
        </mxCell>
        <mxCell id="8kmeovn6baDtIUTZzQ98-23" value="&lt;font style=&quot;font-size: 16px;&quot; color=&quot;#0061eb&quot;&gt;Fichiers de zones slave&lt;/font&gt;" style="rounded=0;whiteSpace=wrap;html=1;" vertex="1" parent="1">
          <mxGeometry x="658" y="190" width="160" height="50" as="geometry" />
        </mxCell>
        <mxCell id="8kmeovn6baDtIUTZzQ98-25" value="" style="endArrow=none;html=1;rounded=0;endFill=0;startArrow=classic;startFill=1;" edge="1" parent="1">
          <mxGeometry width="50" height="50" relative="1" as="geometry">
            <mxPoint x="538" y="320" as="sourcePoint" />
            <mxPoint x="278" y="320" as="targetPoint" />
          </mxGeometry>
        </mxCell>
        <mxCell id="8kmeovn6baDtIUTZzQ98-26" value="&lt;span class=&quot;hljs-selector-tag&quot;&gt;allow-transfer&lt;/span&gt;&amp;nbsp;et&amp;nbsp;&lt;span class=&quot;hljs-selector-tag&quot;&gt;notify&lt;/span&gt;" style="text;html=1;align=left;verticalAlign=middle;whiteSpace=wrap;rounded=0;" vertex="1" parent="1">
          <mxGeometry x="350" y="280" width="130" height="60" as="geometry" />
        </mxCell>
        <mxCell id="8kmeovn6baDtIUTZzQ98-27" value="" style="endArrow=classic;html=1;rounded=0;" edge="1" parent="1">
          <mxGeometry width="50" height="50" relative="1" as="geometry">
            <mxPoint x="280" y="440" as="sourcePoint" />
            <mxPoint x="30" y="440" as="targetPoint" />
          </mxGeometry>
        </mxCell>
        <mxCell id="8kmeovn6baDtIUTZzQ98-28" value="" style="endArrow=none;html=1;rounded=0;endFill=0;startArrow=classic;startFill=1;" edge="1" parent="1">
          <mxGeometry width="50" height="50" relative="1" as="geometry">
            <mxPoint x="720" y="410" as="sourcePoint" />
            <mxPoint x="540" y="410" as="targetPoint" />
          </mxGeometry>
        </mxCell>
        <mxCell id="8kmeovn6baDtIUTZzQ98-29" value="&lt;span class=&quot;hljs-selector-tag&quot;&gt;Zone&lt;/span&gt;&amp;nbsp;&lt;span class=&quot;hljs-selector-tag&quot;&gt;stock&lt;/span&gt;é&lt;span class=&quot;hljs-selector-tag&quot;&gt;e&lt;/span&gt;" style="text;html=1;align=center;verticalAlign=middle;whiteSpace=wrap;rounded=0;" vertex="1" parent="1">
          <mxGeometry x="570" y="382" width="110" height="30" as="geometry" />
        </mxCell>
        <mxCell id="8kmeovn6baDtIUTZzQ98-30" value="" style="endArrow=none;html=1;rounded=0;endFill=0;startArrow=classic;startFill=1;" edge="1" parent="1">
          <mxGeometry width="50" height="50" relative="1" as="geometry">
            <mxPoint x="538" y="460" as="sourcePoint" />
            <mxPoint x="278" y="460" as="targetPoint" />
          </mxGeometry>
        </mxCell>
        <mxCell id="8kmeovn6baDtIUTZzQ98-31" value="&lt;span class=&quot;hljs-selector-tag&quot;&gt;allow-transfer&lt;/span&gt;&amp;nbsp;et&amp;nbsp;&lt;span class=&quot;hljs-selector-tag&quot;&gt;notify&lt;/span&gt;" style="text;html=1;align=left;verticalAlign=middle;whiteSpace=wrap;rounded=0;" vertex="1" parent="1">
          <mxGeometry x="350" y="420" width="120" height="60" as="geometry" />
        </mxCell>
        <mxCell id="8kmeovn6baDtIUTZzQ98-32" value="" style="endArrow=classic;html=1;rounded=0;endFill=1;startArrow=none;startFill=0;" edge="1" parent="1">
          <mxGeometry width="50" height="50" relative="1" as="geometry">
            <mxPoint x="538" y="520" as="sourcePoint" />
            <mxPoint x="278" y="520" as="targetPoint" />
          </mxGeometry>
        </mxCell>
        <mxCell id="8kmeovn6baDtIUTZzQ98-33" value="&lt;span style=&quot;text-align: center;&quot;&gt;Requête IXFR&lt;/span&gt;" style="text;html=1;align=left;verticalAlign=middle;whiteSpace=wrap;rounded=0;" vertex="1" parent="1">
          <mxGeometry x="359" y="480" width="91" height="60" as="geometry" />
        </mxCell>
        <mxCell id="8kmeovn6baDtIUTZzQ98-34" value="" style="endArrow=none;html=1;rounded=0;endFill=0;startArrow=classic;startFill=1;" edge="1" parent="1">
          <mxGeometry width="50" height="50" relative="1" as="geometry">
            <mxPoint x="538" y="560" as="sourcePoint" />
            <mxPoint x="278" y="560" as="targetPoint" />
          </mxGeometry>
        </mxCell>
        <mxCell id="8kmeovn6baDtIUTZzQ98-35" value="&lt;span style=&quot;text-align: center;&quot;&gt;Réponse IXFR&lt;/span&gt;" style="text;html=1;align=left;verticalAlign=middle;whiteSpace=wrap;rounded=0;" vertex="1" parent="1">
          <mxGeometry x="359" y="520" width="290" height="60" as="geometry" />
        </mxCell>
        <mxCell id="8kmeovn6baDtIUTZzQ98-36" value="" style="endArrow=none;html=1;rounded=0;endFill=0;startArrow=classic;startFill=1;" edge="1" parent="1">
          <mxGeometry width="50" height="50" relative="1" as="geometry">
            <mxPoint x="720" y="580" as="sourcePoint" />
            <mxPoint x="540" y="580" as="targetPoint" />
          </mxGeometry>
        </mxCell>
        <mxCell id="8kmeovn6baDtIUTZzQ98-37" value="&lt;span class=&quot;hljs-selector-tag&quot;&gt;Zone&lt;/span&gt;&amp;nbsp;modifié" style="text;html=1;align=center;verticalAlign=middle;whiteSpace=wrap;rounded=0;" vertex="1" parent="1">
          <mxGeometry x="580" y="555" width="110" height="30" as="geometry" />
        </mxCell>
        <mxCell id="8kmeovn6baDtIUTZzQ98-38" value="1" style="ellipse;whiteSpace=wrap;html=1;aspect=fixed;rotation=0;gradientColor=#0057D2;strokeColor=none;gradientDirection=east;fillColor=#2395FF;rounded=0;pointerEvents=0;fontFamily=Helvetica;fontSize=16;fontColor=#FFFFFF;spacingTop=4;spacingBottom=4;spacingLeft=4;spacingRight=4;points=[];fontStyle=1" vertex="1" parent="1">
          <mxGeometry x="60" y="277" width="20" height="20" as="geometry" />
        </mxCell>
        <mxCell id="8kmeovn6baDtIUTZzQ98-39" value="2" style="ellipse;whiteSpace=wrap;html=1;aspect=fixed;rotation=0;gradientColor=#0057D2;strokeColor=none;gradientDirection=east;fillColor=#2395FF;rounded=0;pointerEvents=0;fontFamily=Helvetica;fontSize=16;fontColor=#FFFFFF;spacingTop=4;spacingBottom=4;spacingLeft=4;spacingRight=4;points=[];fontStyle=1" vertex="1" parent="1">
          <mxGeometry x="324" y="297" width="20" height="20" as="geometry" />
        </mxCell>
        <mxCell id="8kmeovn6baDtIUTZzQ98-40" value="3" style="ellipse;whiteSpace=wrap;html=1;aspect=fixed;rotation=0;gradientColor=#0057D2;strokeColor=none;gradientDirection=east;fillColor=#2395FF;rounded=0;pointerEvents=0;fontFamily=Helvetica;fontSize=16;fontColor=#FFFFFF;spacingTop=4;spacingBottom=4;spacingLeft=4;spacingRight=4;points=[];fontStyle=1" vertex="1" parent="1">
          <mxGeometry x="324" y="335" width="20" height="20" as="geometry" />
        </mxCell>
        <mxCell id="8kmeovn6baDtIUTZzQ98-41" value="4" style="ellipse;whiteSpace=wrap;html=1;aspect=fixed;rotation=0;gradientColor=#0057D2;strokeColor=none;gradientDirection=east;fillColor=#2395FF;rounded=0;pointerEvents=0;fontFamily=Helvetica;fontSize=16;fontColor=#FFFFFF;spacingTop=4;spacingBottom=4;spacingLeft=4;spacingRight=4;points=[];fontStyle=1" vertex="1" parent="1">
          <mxGeometry x="324" y="377" width="20" height="20" as="geometry" />
        </mxCell>
        <mxCell id="8kmeovn6baDtIUTZzQ98-42" value="5" style="ellipse;whiteSpace=wrap;html=1;aspect=fixed;rotation=0;gradientColor=#0057D2;strokeColor=none;gradientDirection=east;fillColor=#2395FF;rounded=0;pointerEvents=0;fontFamily=Helvetica;fontSize=16;fontColor=#FFFFFF;spacingTop=4;spacingBottom=4;spacingLeft=4;spacingRight=4;points=[];fontStyle=1" vertex="1" parent="1">
          <mxGeometry x="560" y="387" width="20" height="20" as="geometry" />
        </mxCell>
        <mxCell id="8kmeovn6baDtIUTZzQ98-43" value="6" style="ellipse;whiteSpace=wrap;html=1;aspect=fixed;rotation=0;gradientColor=#0057D2;strokeColor=none;gradientDirection=east;fillColor=#2395FF;rounded=0;pointerEvents=0;fontFamily=Helvetica;fontSize=16;fontColor=#FFFFFF;spacingTop=4;spacingBottom=4;spacingLeft=4;spacingRight=4;points=[];fontStyle=1" vertex="1" parent="1">
          <mxGeometry x="60" y="412" width="20" height="20" as="geometry" />
        </mxCell>
        <mxCell id="8kmeovn6baDtIUTZzQ98-44" value="7" style="ellipse;whiteSpace=wrap;html=1;aspect=fixed;rotation=0;gradientColor=#0057D2;strokeColor=none;gradientDirection=east;fillColor=#2395FF;rounded=0;pointerEvents=0;fontFamily=Helvetica;fontSize=16;fontColor=#FFFFFF;spacingTop=4;spacingBottom=4;spacingLeft=4;spacingRight=4;points=[];fontStyle=1" vertex="1" parent="1">
          <mxGeometry x="324" y="437" width="20" height="20" as="geometry" />
        </mxCell>
        <mxCell id="8kmeovn6baDtIUTZzQ98-45" value="8" style="ellipse;whiteSpace=wrap;html=1;aspect=fixed;rotation=0;gradientColor=#0057D2;strokeColor=none;gradientDirection=east;fillColor=#2395FF;rounded=0;pointerEvents=0;fontFamily=Helvetica;fontSize=16;fontColor=#FFFFFF;spacingTop=4;spacingBottom=4;spacingLeft=4;spacingRight=4;points=[];fontStyle=1" vertex="1" parent="1">
          <mxGeometry x="324" y="497" width="20" height="20" as="geometry" />
        </mxCell>
        <mxCell id="8kmeovn6baDtIUTZzQ98-46" value="9" style="ellipse;whiteSpace=wrap;html=1;aspect=fixed;rotation=0;gradientColor=#0057D2;strokeColor=none;gradientDirection=east;fillColor=#2395FF;rounded=0;pointerEvents=0;fontFamily=Helvetica;fontSize=16;fontColor=#FFFFFF;spacingTop=4;spacingBottom=4;spacingLeft=4;spacingRight=4;points=[];fontStyle=1" vertex="1" parent="1">
          <mxGeometry x="324" y="535" width="20" height="20" as="geometry" />
        </mxCell>
        <mxCell id="8kmeovn6baDtIUTZzQ98-48" value="10" style="ellipse;whiteSpace=wrap;html=1;aspect=fixed;rotation=0;gradientColor=#0057D2;strokeColor=none;gradientDirection=east;fillColor=#2395FF;rounded=0;pointerEvents=0;fontFamily=Helvetica;fontSize=16;fontColor=#FFFFFF;spacingTop=4;spacingBottom=4;spacingLeft=4;spacingRight=4;points=[];fontStyle=1" vertex="1" parent="1">
          <mxGeometry x="568" y="558" width="20" height="20" as="geometry" />
        </mxCell>
      </root>
    </mxGraphModel>
  </diagram>
</mxfile>
